<?xml version="1.0" encoding="utf-8"?><svg viewBox="0 0 53 56" xmlns="http://www.w3.org/2000/svg" xmlns:xlink="http://www.w3.org/1999/xlink"><style>:root>svg{display:none}:root>svg:target{display:block}</style><svg viewBox="0 0 25 25" id="header-1" xmlns="http://www.w3.org/2000/svg"><path d="M11.01 0C4.938 0 0 4.939 0 11.01c0 6.07 4.939 11.009 11.01 11.009 6.07 0 11.009-4.939 11.009-11.01C22.019 4.94 17.08 0 11.009 0zm0 19.986c-4.95 0-8.977-4.027-8.977-8.977s4.027-8.976 8.976-8.976c4.95 0 8.977 4.027 8.977 8.976 0 4.95-4.027 8.977-8.977 8.977z"/><path d="M24.702 23.265l-5.827-5.826a1.016 1.016 0 10-1.437 1.437l5.827 5.826a1.012 1.012 0 001.437 0 1.016 1.016 0 000-1.437z"/></svg><svg viewBox="0 0 28 25" id="header-2" xmlns="http://www.w3.org/2000/svg"><path d="M14 25c-.399 0-.783-.145-1.082-.408a325.333 325.333 0 00-3.184-2.748l-.005-.005c-2.821-2.412-5.257-4.496-6.952-6.548C.882 12.997 0 10.821 0 8.445c0-2.309.789-4.44 2.221-5.998C3.671.869 5.66 0 7.822 0c1.616 0 3.096.513 4.4 1.524A9.02 9.02 0 0114 3.388a9.021 9.021 0 011.779-1.864C17.082.513 18.562 0 20.179 0c2.162 0 4.15.869 5.6 2.447C27.211 4.006 28 6.136 28 8.445c0 2.376-.882 4.552-2.777 6.846-1.695 2.052-4.13 4.136-6.951 6.548-.964.824-2.056 1.758-3.19 2.753A1.64 1.64 0 0114 25zM7.822 1.646c-1.699 0-3.26.68-4.395 1.916C2.275 4.817 1.64 6.551 1.64 8.445c0 1.999.74 3.786 2.4 5.796 1.604 1.942 3.99 3.983 6.752 6.346l.006.004c.965.826 2.06 1.762 3.2 2.762a383.634 383.634 0 013.21-2.767c2.763-2.362 5.148-4.403 6.752-6.345 1.66-2.01 2.4-3.797 2.4-5.796 0-1.894-.635-3.628-1.787-4.883a5.897 5.897 0 00-4.395-1.916c-1.244 0-2.387.397-3.396 1.18-.9.698-1.525 1.58-1.893 2.198A1.026 1.026 0 0114 5.53c-.368 0-.7-.19-.89-.507-.366-.618-.993-1.5-1.892-2.198-1.009-.783-2.152-1.18-3.396-1.18z"/></svg><svg viewBox="0 0 30 25" id="header-3" xmlns="http://www.w3.org/2000/svg"><path d="M29.01 8.327a2.035 2.035 0 00-1.601-.768h-5.671L18.663.518a.863.863 0 10-1.581.69l2.773 6.351H9.592l2.773-6.35a.863.863 0 00-1.581-.691L7.709 7.559H2.038c-.629 0-1.212.28-1.6.768a1.986 1.986 0 00-.387 1.69l3.028 13.227a2.021 2.021 0 001.987 1.57h19.315c.958 0 1.775-.646 1.987-1.57l3.028-13.228a1.986 1.986 0 00-.386-1.69zm-4.63 14.76H5.067a.309.309 0 01-.305-.228L1.733 9.631a.263.263 0 01.053-.229.313.313 0 01.252-.117h4.917l-.226.517a.863.863 0 001.581.69l.528-1.207h11.77l.528 1.208a.863.863 0 101.582-.69l-.226-.518h4.917c.137 0 .216.073.251.117a.263.263 0 01.054.23l-3.028 13.227a.309.309 0 01-.305.229z"/></svg><svg viewBox="0 0 22 25" id="header-4" xmlns="http://www.w3.org/2000/svg"><path d="M10.718 12.043c1.654 0 3.087-.594 4.257-1.764 1.17-1.171 1.764-2.603 1.764-4.258 0-1.654-.593-3.086-1.764-4.257C13.805.594 12.372 0 10.718 0 9.063 0 7.63.593 6.46 1.764 5.29 2.934 4.696 4.367 4.696 6.02c0 1.655.594 3.087 1.764 4.258 1.171 1.17 2.604 1.764 4.258 1.764zM7.496 2.8c.899-.898 1.952-1.335 3.222-1.335s2.323.437 3.221 1.335c.899.898 1.335 1.952 1.335 3.221 0 1.27-.436 2.323-1.335 3.222-.898.898-1.952 1.335-3.221 1.335-1.27 0-2.323-.437-3.222-1.335-.898-.899-1.335-1.952-1.335-3.222 0-1.269.437-2.323 1.335-3.221zM21.253 19.224a14.887 14.887 0 00-.202-1.58 12.45 12.45 0 00-.389-1.588 7.846 7.846 0 00-.653-1.481 5.58 5.58 0 00-.984-1.284 4.341 4.341 0 00-1.415-.888 4.889 4.889 0 00-1.805-.327c-.255 0-.502.105-.979.415-.293.191-.636.413-1.02.657-.327.21-.77.405-1.318.582a5.239 5.239 0 01-1.614.26 5.242 5.242 0 01-1.613-.26c-.547-.177-.991-.373-1.318-.581-.38-.243-.723-.464-1.02-.658-.477-.31-.724-.415-.979-.415-.65 0-1.257.11-1.805.327a4.337 4.337 0 00-1.415.889 5.583 5.583 0 00-.984 1.283 7.856 7.856 0 00-.653 1.481A12.474 12.474 0 00.7 17.644c-.1.56-.169 1.092-.203 1.58-.033.478-.05.975-.05 1.477 0 1.305.415 2.361 1.233 3.14.808.77 1.877 1.159 3.177 1.159h12.038c1.3 0 2.369-.39 3.177-1.159.818-.778 1.233-1.835 1.233-3.14 0-.504-.017-1.001-.05-1.477zm-2.192 3.556c-.534.508-1.243.755-2.167.755H4.856c-.924 0-1.633-.247-2.167-.755-.523-.498-.778-1.179-.778-2.08 0-.468.016-.93.047-1.374.03-.436.091-.915.183-1.423.09-.502.205-.974.341-1.4a6.4 6.4 0 01.532-1.205 4.14 4.14 0 01.723-.948c.251-.24.568-.437.941-.585a3.37 3.37 0 011.154-.223c.051.028.143.08.29.176.302.197.649.42 1.033.666.432.275.99.524 1.655.74.681.22 1.375.331 2.064.331.69 0 1.384-.111 2.064-.331.667-.216 1.224-.465 1.657-.74.393-.252.73-.47 1.031-.666.149-.096.24-.148.291-.175.421.01.81.086 1.154.222.373.148.69.345.941.585.269.257.512.576.723.948.222.39.401.796.532 1.205.137.427.252.898.342 1.4.091.51.153.988.183 1.423.031.442.047.905.047 1.375 0 .9-.255 1.58-.778 2.079z"/></svg><svg viewBox="0 0 26 25" id="products-star" xmlns="http://www.w3.org/2000/svg"><path d="M21.032 24.333L13 20.254l-8.032 4.08 1.534-8.64L0 9.574l8.981-1.26L13 .334l4.019 7.98L26 9.574l-6.502 6.12 1.534 8.64z"/></svg><svg fill="none" viewBox="0 0 53 56" id="subscribe-1" xmlns="http://www.w3.org/2000/svg"><path d="M46.874 5.425C45.492 4.152 39.899.094 27.43.04c0 0-14.699-.88-21.858 5.69C1.59 9.713.186 15.556.034 22.79c-.153 7.236-.338 20.793 12.73 24.47h.01l-.01 5.614s-.087 2.274 1.414 2.731c1.806.566 2.873-1.164 4.603-3.024.946-1.023 2.252-2.525 3.242-3.667 8.944.75 15.809-.968 16.592-1.219 1.807-.587 12.023-1.893 13.677-15.45 1.72-13.992-.827-22.827-5.418-26.82zm1.512 25.797c-1.404 11.316-9.684 12.034-11.207 12.524-.653.206-6.691 1.708-14.275 1.218 0 0-5.657 6.822-7.42 8.596-.577.576-1.208.522-1.197-.62 0-.751.043-9.325.043-9.325-.01 0-.01 0 0 0C3.255 40.547 3.908 29.003 4.027 22.965c.12-6.04 1.262-10.99 4.635-14.32 6.06-5.494 18.54-4.678 18.54-4.678 10.543.044 15.591 3.22 16.766 4.287 3.885 3.33 5.865 11.294 4.418 22.968zm-15.124-8.79c.044.935-1.36 1-1.403.064-.12-2.393-1.24-3.557-3.547-3.688-.936-.054-.849-1.458.076-1.404 3.035.164 4.722 1.904 4.874 5.027zm2.209 1.229c.109-4.614-2.774-8.226-8.247-8.629-.925-.065-.827-1.468.098-1.403 6.31.457 9.672 4.798 9.553 10.064-.011.936-1.426.892-1.404-.032zm5.114 1.458c.01.935-1.404.946-1.404.01-.065-8.867-5.973-13.698-13.143-13.752-.925-.011-.925-1.404 0-1.404 8.019.055 14.47 5.593 14.547 15.146zm-1.23 10.673v.022c-1.175 2.067-3.373 4.352-5.636 3.623l-.022-.033c-2.295-.642-7.703-3.427-11.12-6.147a28.44 28.44 0 01-4.612-4.613 35.304 35.304 0 01-3.352-5.07c-2.317-4.19-2.829-6.06-2.829-6.06-.729-2.264 1.545-4.462 3.624-5.637h.021c1.001-.522 1.959-.348 2.6.425 0 0 1.35 1.61 1.927 2.404.544.74 1.273 1.926 1.654 2.59.663 1.186.25 2.393-.403 2.894L19.9 21.234c-.663.533-.576 1.523-.576 1.523s1.936 7.323 9.172 9.173c0 0 .99.087 1.523-.577l1.044-1.306c.501-.652 1.709-1.066 2.895-.402 1.599.903 3.634 2.306 4.983 3.58.761.62.935 1.566.413 2.567z" fill="#878787"/></svg><svg fill="none" viewBox="0 0 48 42" id="subscribe-2" xmlns="http://www.w3.org/2000/svg"><path d="M18.968 27.48L18.2 38.821c1.099 0 1.575-.496 2.145-1.09l5.152-5.17 10.675 8.208c1.957 1.145 3.337.542 3.865-1.891l7.007-34.475.001-.002C47.666 1.364 46 .175 44.091.921L2.905 17.478c-2.81 1.145-2.768 2.79-.477 3.536l10.53 3.439 24.457-16.07c1.151-.8 2.198-.357 1.337.443L18.968 27.48z" fill="#878787"/></svg><svg fill="none" viewBox="0 0 24 24" id="subscribe-tel" xmlns="http://www.w3.org/2000/svg"><path d="M4.863 15.954a25.545 25.545 0 008.502 6.634c1.243.586 2.905 1.283 4.757 1.402.115.005.225.01.34.01 1.242 0 2.24-.428 3.055-1.308.005-.005.015-.015.02-.025.289-.348.619-.661.963-.994.235-.224.474-.458.704-.697 1.063-1.104 1.063-2.506-.01-3.575l-3-2.99c-.51-.526-1.118-.805-1.758-.805-.639 0-1.253.279-1.777.801l-1.787 1.78c-.165-.094-.334-.179-.494-.258a6.14 6.14 0 01-.549-.299c-1.627-1.03-3.105-2.372-4.518-4.098-.714-.9-1.193-1.655-1.527-2.426.469-.423.908-.866 1.333-1.298.15-.154.304-.309.459-.463.539-.537.829-1.159.829-1.79 0-.632-.285-1.253-.83-1.79L8.089 2.283c-.174-.174-.34-.344-.509-.518-.33-.338-.674-.686-1.013-1C6.052.265 5.448 0 4.809 0 4.175 0 3.566.264 3.03.77L1.164 2.63A3.815 3.815 0 00.021 5.078c-.095 1.19.125 2.452.694 3.979.874 2.362 2.192 4.555 4.148 6.898zM1.24 5.182c.06-.661.315-1.214.794-1.69l1.857-1.85c.29-.28.61-.424.919-.424.304 0 .614.145.898.433.335.308.65.632.989.975l.519.527 1.487 1.482c.31.308.47.622.47.93 0 .308-.16.621-.47.93l-.464.467c-.464.468-.899.91-1.378 1.333l-.025.025c-.414.413-.35.806-.25 1.104l.016.04c.384.92.918 1.795 1.752 2.84 1.497 1.84 3.075 3.267 4.812 4.366.215.139.444.248.659.358.2.1.384.194.55.298l.054.03c.165.084.324.124.484.124.4 0 .66-.253.744-.338l1.867-1.86c.29-.288.604-.442.913-.442.38 0 .69.233.884.442l3.01 2.994c.6.597.594 1.243-.015 1.875-.21.224-.43.438-.664.661-.35.338-.713.687-1.043 1.08-.574.616-1.258.905-2.142.905-.084 0-.174-.006-.26-.01-1.636-.105-3.159-.741-4.302-1.284a24.267 24.267 0 01-8.092-6.315c-1.862-2.233-3.115-4.312-3.944-6.54-.514-1.367-.709-2.466-.629-3.466z" fill="#878787"/></svg></svg>